<svg id="visual" viewBox="0 0 900 600" width="900" height="600" xmlns="http://www.w3.org/2000/svg" xmlns:xlink="http://www.w3.org/1999/xlink" version="1.1"><path d="M0 25L113 37L225 25L338 25L450 37L563 25L675 25L788 19L900 37L900 0L788 0L675 0L563 0L450 0L338 0L225 0L113 0L0 0Z" fill="#00c2cc"></path><path d="M0 217L113 181L225 187L338 193L450 181L563 199L675 151L788 133L900 175L900 35L788 17L675 23L563 23L450 35L338 23L225 23L113 35L0 23Z" fill="#00b2d1"></path><path d="M0 259L113 259L225 277L338 259L450 253L563 235L675 229L788 217L900 229L900 173L788 131L675 149L563 197L450 179L338 191L225 185L113 179L0 215Z" fill="#00a2d3"></path><path d="M0 319L113 307L225 313L338 289L450 283L563 277L675 265L788 253L900 265L900 227L788 215L675 227L563 233L450 251L338 257L225 275L113 257L0 257Z" fill="#0090d2"></path><path d="M0 355L113 343L225 343L338 331L450 337L563 325L675 289L788 307L900 301L900 263L788 251L675 263L563 275L450 281L338 287L225 311L113 305L0 317Z" fill="#007dcc"></path><path d="M0 385L113 373L225 379L338 385L450 379L563 379L675 337L788 337L900 349L900 299L788 305L675 287L563 323L450 335L338 329L225 341L113 341L0 353Z" fill="#0069c1"></path><path d="M0 457L113 415L225 469L338 481L450 451L563 469L675 409L788 433L900 457L900 347L788 335L675 335L563 377L450 377L338 383L225 377L113 371L0 383Z" fill="#0054b4"></path><path d="M0 547L113 523L225 541L338 553L450 547L563 559L675 547L788 535L900 565L900 455L788 431L675 407L563 467L450 449L338 479L225 467L113 413L0 455Z" fill="#003ea6"></path><path d="M0 571L113 565L225 571L338 583L450 583L563 583L675 565L788 559L900 583L900 563L788 533L675 545L563 557L450 545L338 551L225 539L113 521L0 545Z" fill="#052695"></path><path d="M0 601L113 601L225 601L338 601L450 601L563 601L675 601L788 601L900 601L900 581L788 557L675 563L563 581L450 581L338 581L225 569L113 563L0 569Z" fill="#1c0382"></path></svg>