<svg id="visual" viewBox="0 0 900 600" width="900" height="600" xmlns="http://www.w3.org/2000/svg" xmlns:xlink="http://www.w3.org/1999/xlink" version="1.1"><path d="M0 462L21.5 463.7C43 465.3 86 468.7 128.8 469.7C171.7 470.7 214.3 469.3 257.2 466.2C300 463 343 458 385.8 461.8C428.7 465.7 471.3 478.3 514.2 479.3C557 480.3 600 469.7 642.8 454.7C685.7 439.7 728.3 420.3 771.2 420.8C814 421.3 857 441.7 878.5 451.8L900 462L900 601L878.5 601C857 601 814 601 771.2 601C728.3 601 685.7 601 642.8 601C600 601 557 601 514.2 601C471.3 601 428.7 601 385.8 601C343 601 300 601 257.2 601C214.3 601 171.7 601 128.8 601C86 601 43 601 21.5 601L0 601Z" fill="#6981fa"></path><path d="M0 436L21.5 448.7C43 461.3 86 486.7 128.8 493C171.7 499.3 214.3 486.7 257.2 484.2C300 481.7 343 489.3 385.8 493.5C428.7 497.7 471.3 498.3 514.2 493.8C557 489.3 600 479.7 642.8 483.2C685.7 486.7 728.3 503.3 771.2 506.2C814 509 857 498 878.5 492.5L900 487L900 601L878.5 601C857 601 814 601 771.2 601C728.3 601 685.7 601 642.8 601C600 601 557 601 514.2 601C471.3 601 428.7 601 385.8 601C343 601 300 601 257.2 601C214.3 601 171.7 601 128.8 601C86 601 43 601 21.5 601L0 601Z" fill="#5665eb"></path><path d="M0 505L21.5 506.2C43 507.3 86 509.7 128.8 512C171.7 514.3 214.3 516.7 257.2 518.5C300 520.3 343 521.7 385.8 519.8C428.7 518 471.3 513 514.2 507C557 501 600 494 642.8 497C685.7 500 728.3 513 771.2 514C814 515 857 504 878.5 498.5L900 493L900 601L878.5 601C857 601 814 601 771.2 601C728.3 601 685.7 601 642.8 601C600 601 557 601 514.2 601C471.3 601 428.7 601 385.8 601C343 601 300 601 257.2 601C214.3 601 171.7 601 128.8 601C86 601 43 601 21.5 601L0 601Z" fill="#4647da"></path><path d="M0 546L21.5 545.8C43 545.7 86 545.3 128.8 542.3C171.7 539.3 214.3 533.7 257.2 532.8C300 532 343 536 385.8 538.7C428.7 541.3 471.3 542.7 514.2 547.5C557 552.3 600 560.7 642.8 563C685.7 565.3 728.3 561.7 771.2 560.5C814 559.3 857 560.7 878.5 561.3L900 562L900 601L878.5 601C857 601 814 601 771.2 601C728.3 601 685.7 601 642.8 601C600 601 557 601 514.2 601C471.3 601 428.7 601 385.8 601C343 601 300 601 257.2 601C214.3 601 171.7 601 128.8 601C86 601 43 601 21.5 601L0 601Z" fill="#3a24c7"></path></svg>